<?xml version="1.0" encoding="utf-8"?>
<!-- Generator: Adobe Illustrator 24.2.3, SVG Export Plug-In . SVG Version: 6.00 Build 0)  -->
<svg version="1.1" id="Ebene_1" xmlns="http://www.w3.org/2000/svg" xmlns:xlink="http://www.w3.org/1999/xlink" x="0px" y="0px"
	 viewBox="0 0 1920 2130" style="enable-background:new 0 0 1920 2130;" xml:space="preserve">
<style type="text/css">
	.st0{fill:#025B00;}
	.st1{fill:none;stroke:#BAD670;stroke-width:5;stroke-miterlimit:10;}
	.st2{fill:#22824D;}
	.st3{fill:#48AA72;}
	.st4{fill:#212529;}
	.st5{fill:#0096D6;}
	.st6{fill:#666666;}
	.st7{fill:#E5E5E5;}
	.st8{fill:#A3A3A3;}
	.st9{fill:#FFFFFF;stroke:#000000;stroke-miterlimit:10;}
	.st10{fill:#0096D6;stroke:#0096D6;stroke-miterlimit:10;}
	.st11{fill:#FFB9B7;}
	.st12{fill:#0082A5;stroke:#0096D6;stroke-miterlimit:10;}
	.st13{fill:#563701;}
	.st14{fill:#CC8791;}
	.st15{fill:#FFDE83;}
	.st16{fill:#FFFFFF;}
	.st17{fill:none;stroke:#000000;stroke-miterlimit:10;}
	.st18{fill:#3F0716;}
	.st19{fill:#8E575E;}
	.st20{display:none;}
	.st21{display:inline;}
	.st22{fill:#FFFC99;}
	.st23{fill:none;stroke:#BA8502;stroke-width:3;stroke-miterlimit:10;}
</style>
<g id="plants">
	<path class="st0" d="M128.6,1103c8.1-9,39.6,4.5,59.8,17.7c24.1,15.7,29.4,29.2,53.9,52.2c23.4,22,37.6,27.6,58.1,42.1
		c7.6,5.4,111.3,79.9,96,132.2c-13.6,46.3-119,69.2-150.7,36.2c-17.9-18.7,1.8-40.6-16.8-73.3c-26.4-46.3-86.3-37.8-95.1-74.1
		c-5.2-21.2,14.6-27,14.3-61.5C147.7,1134.1,120.2,1112.4,128.6,1103z"/>
	<path class="st1" d="M164.3,1145.5c22.7,6,38.1,31.9,32.5,54.8c-2.6,10.5-7.1,25.1,2.9,29.4c2.4,1,5.1,1,7.7,1.1
		c35.4,1.4,64,29.4,83.6,58.9c19.6,29.5,34.7,62.9,61.1,86.4"/>
	<path class="st2" d="M116,841.2c18-20.6,140.2,37.2,228.2,119.6c142.1,133.1,226.6,359.8,165.9,415.1
		c-52.5,47.8-229.1-18.4-255.1-112c-17-61.1,36.6-111.2,6.7-154.1c-31.7-45.6-109-12.9-134.7-58.1c-20.2-35.6,20.4-68.7,5.1-147.3
		C124.1,863.6,108.7,849.4,116,841.2z"/>
	<path class="st1" d="M162.2,887.5c17.1,6.8,19.9,30.3,14.9,48s-15,34.7-13.6,53.1c2.2,28,29.8,47,56.4,56.2s56,13.7,77.5,31.8
		c24.1,20.4,32.7,53.3,38,84.4c8,46.7,11.5,94.2,10.6,141.5"/>
	<path class="st3" d="M238.9,714.9c16.2-13.8,65,3,87.6,35.4c19,27.3,6.8,47.4,28.6,79.2c15.6,22.7,28.9,22.5,48.8,40.4
		c39.4,35.4,27.3,71.8,53.9,133c32.4,74.7,67.5,58.2,93.5,128c7.2,19.5,27.6,82.3,3.4,152.4c-10.2,29.7-22.7,65.8-53,79.6
		c-71.6,32.7-217.9-71.3-220.6-170.2c-1.7-63.4,62.3-99.1,43.7-147.9C305,992.8,222.1,1006,208,955.9
		c-11.9-42.6,38.5-64.2,40.4-141.8C249.9,757.7,223.6,727.9,238.9,714.9z"/>
	<path class="st1" d="M533.8,1314c1.4,4-6.9,4.9-11.6,3.3c-90.6-30.3-146.8-116.4-126.6-194c8.1-30.9,26.7-60,30-91.6
		c4-38.7-17.2-78.6-54.9-102.8c-25.4-16.3-58.2-26.5-75.8-48.5c-7.5-9.5-11.6-20.5-13.6-31.7c-5.3-29.3,3.8-60.2,24.9-84.5"/>
	<path class="st3" d="M1362.6,1364.8c46.8,6.9,95.2-7.7,134.9-33.6c39.6-25.9,71.3-62.6,97.8-101.8
		c79.6-117.5,116.7-270.8,68.6-404.3c-17.7-49.1-47.1-95-89.3-125.8c-17.2-12.5-37.3-22.6-58.5-22c-25.8,0.8-49.3,17.9-62.7,40
		c-13.4,22.1-18,48.5-18.6,74.3c-2.2,97,46.8,186.5,82.2,276.8c9,22.9,17.2,46.5,19.5,71c4.1,45.1-12.9,90.6-41.4,125.7
		c-28.5,35.2-67.6,60.6-109.3,78.1C1378.8,1352.9,1372.2,1357.9,1362.6,1364.8z"/>
	<path class="st0" d="M1557.1,1327.8c-14.4-19.9-32.8-33.2-50.4-47.7c-61.1-50.4-115.6-120-146.1-208.6s-34-197.6,0.9-283
		c9.6-23.5,24.9-47,44.4-46.5c18.3,0.5,32.5,21.7,42.1,43.2c27.9,62.7,35.2,138,49,209s38,144.9,85.2,179.2
		c11.6,8.4,24.7,14.6,32.7,28.8c13.2,23.1,7.6,56.5,1,84.5c-3.4,14.6-15.3,92-25.5,96.3C1578.1,1388,1564.8,1338.4,1557.1,1327.8z"
		/>
	<path class="st3" d="M1614.7,1188.6c8.5-33.3,18-66.7,34.7-96.7s41.6-56.6,73.4-69.5c31.8-13,71.1-10.2,97.3,12
		c26.9,22.8,35.9,61.8,30.1,96.5c-11.4,68.2-69.2,118-125.4,158.3c-24.1,17.3-48.6,34.2-71.3,53.4c-11.8,10-52.3,60.5-61.5,52.6
		c-15.3-12.9-1-83.2,1.3-100.9C1598,1258.6,1605.8,1223.4,1614.7,1188.6z"/>
	<path class="st2" d="M1568.4,1112c2.2-96.2-15.3-191.8-16.4-288.1c-0.4-37.1,1.9-75.5,18.5-108.7s50.7-60,87.8-57.8
		c42.7,2.5,74.9,41.4,89.6,81.6c30.5,83.2,9,175.8-18.8,260c-16.4,49.7-15.6,32.7-67.2,156.2c-60.2,144-79.2,211.4-118.4,213.9
		c-9.9,0.6-24.9-2.7-44.4-23.4C1554.5,1248.1,1567.2,1167.8,1568.4,1112z"/>
	<path class="st3" d="M1527.6,1166.8c-8.5-33.3-18-66.7-34.7-96.7s-41.6-56.6-73.4-69.5c-31.8-13-71.1-10.2-97.3,12
		c-26.9,22.8-35.9,61.8-30.1,96.5c11.4,68.2,69.2,118,125.4,158.3c24.1,17.3,48.6,34.2,71.3,53.4c11.8,10,52.3,60.5,61.5,52.6
		c15.3-12.9,1-83.2-1.3-100.9C1544.2,1236.7,1536.4,1201.6,1527.6,1166.8z"/>
	<path class="st1" d="M1609.1,1358.4c31.3-104.7,101.7-197.1,194.3-255"/>
	<path class="st1" d="M1558.1,1329c31.7-99.6,72.1-196.4,99.3-297.4c27.2-100.9,41-207.9,18.2-310"/>
	<path class="st1" d="M1524.8,735.1c-6.3,61.4-11,123.7-0.6,184.5c9.2,54,30.2,106.9,26.8,161.6"/>
	<path class="st1" d="M1536,1350.6c2.2-45.7-20.3-88.9-45.7-127c-29.7-44.6-64.3-85.8-103.1-122.8"/>
	<path class="st1" d="M1643.2,983.3c-5.4,0.5-9.6-4.5-12.6-9c-30.2-45.7-41.6-100.9-52.4-154.6"/>
	<path class="st1" d="M1663.6,878.6c-9.3-7.6-16-17.9-22.1-28.3c-23.6-40.6-39.1-85.8-45.6-132.3"/>
	<path class="st1" d="M1694,1008.6c16.8-34.9,32.3-70.4,46.3-106.5"/>
	<path class="st1" d="M1711.7,850.3c10.4-32.2,16.3-65.9,17.5-99.8"/>
	<path class="st1" d="M1667.8,1206.7c7.1-31.4,19.8-61.6,37.2-88.7"/>
	<path class="st1" d="M1744.4,1131.1c7.8-32.3,20.5-63.4,37.4-92.1"/>
	<path class="st1" d="M1681.8,1293.2c35.5-14.1,67.7-36.2,93.5-64.3"/>
	<path class="st1" d="M1737.5,1194.8c29.9-6.9,58-21.6,80.9-42.2"/>
	<path class="st1" d="M1467.3,711.6c13.4,28.4,30.9,54.9,51.6,78.5"/>
	<path class="st1" d="M1478,935.1c5,15,15.3,28.3,28.6,36.8"/>
	<path class="st1" d="M1523.9,1242.9c-3-3.3-1.9-8.5-0.6-12.8c8.1-26.5,16.2-53,24.3-79.4"/>
</g>
<g id="gear">
	<path class="st4" d="M1812,1254.2c0-16.5,0-14.3,0-30.8l-48.9-12.3c-3.2-12-4-14.8-7.2-26.8l36.3-35.1
		c-8.3-14.3-7.1-12.4-15.4-26.7l-48.5,13.9c-8.8-8.8-10.8-10.8-19.6-19.6l13.9-48.5c-14.3-8.3-12.4-7.1-26.7-15.4l-35.1,36.3
		c-12-3.2-14.8-4-26.8-7.2l-12.3-48.9c-16.5,0-14.3,0-30.8,0l-12.3,48.9c-12,3.2-14.8,4-26.8,7.2l-35.1-36.3
		c-14.3,8.3-12.4,7.1-26.7,15.4l13.9,48.5c-8.8,8.8-10.8,10.8-19.6,19.6l-48.5-13.9c-8.3,14.3-7.1,12.4-15.4,26.7l36.3,35.1
		c-3.2,12-4,14.8-7.2,26.8l-48.9,12.3c0,16.5,0,14.3,0,30.8l48.9,12.3c3.2,12,4,14.8,7.2,26.8l-36.3,35.1
		c8.3,14.3,7.1,12.4,15.4,26.7l48.5-13.9c8.8,8.8,10.8,10.8,19.6,19.6l-13.9,48.5c14.3,8.3,12.4,7.1,26.7,15.4l35.1-36.3
		c12,3.2,14.8,4,26.8,7.2l12.3,48.9c16.5,0,14.3,0,30.8,0l12.3-48.9c12-3.2,14.8-4,26.8-7.2l35.1,36.3c14.3-8.3,12.4-7.1,26.7-15.4
		l-13.9-48.5c8.8-8.8,10.8-10.8,19.6-19.6l48.5,13.9c8.3-14.3,7.1-12.4,15.4-26.7l-36.3-35.1c3.2-12,4-14.8,7.2-26.8L1812,1254.2z
		 M1606.9,1338.7c-55.5,0-100.6-45-100.6-100.6c0-55.5,45-100.6,100.6-100.6s100.6,45,100.6,100.6
		C1707.5,1293.6,1662.4,1338.7,1606.9,1338.7z"/>
	<path class="st5" d="M1622.4,936.2c0-11.4,0-9.9,0-21.3l-33.8-8.5c-2.2-8.3-2.7-10.2-5-18.5l25.1-24.3c-5.7-9.9-4.9-8.5-10.7-18.4
		l-33.5,9.6c-6.1-6.1-7.5-7.5-13.6-13.6l9.6-33.5c-9.9-5.7-8.6-4.9-18.4-10.7l-24.3,25.1c-8.3-2.2-10.2-2.7-18.5-5l-8.5-33.8
		c-11.4,0-9.9,0-21.3,0l-8.5,33.8c-8.3,2.2-10.2,2.7-18.5,5l-24.3-25.1c-9.9,5.7-8.5,4.9-18.4,10.7l9.6,33.5
		c-6.1,6.1-7.5,7.5-13.6,13.6l-33.5-9.6c-5.7,9.9-4.9,8.5-10.7,18.4l25.1,24.3c-2.2,8.3-2.7,10.2-5,18.5l-33.8,8.5
		c0,11.4,0,9.9,0,21.3l33.8,8.5c2.2,8.3,2.7,10.2,5,18.5l-25.1,24.3c5.7,9.9,4.9,8.5,10.7,18.4l33.5-9.6c6.1,6.1,7.5,7.5,13.6,13.6
		l-9.6,33.5c9.9,5.7,8.6,4.9,18.4,10.7l24.3-25.1c8.3,2.2,10.2,2.7,18.5,5l8.5,33.8c11.4,0,9.9,0,21.3,0l8.5-33.8
		c8.3-2.2,10.2-2.7,18.5-5l24.3,25.1c9.9-5.7,8.5-4.9,18.4-10.7l-9.6-33.5c6.1-6.1,7.5-7.5,13.6-13.6l33.5,9.6
		c5.7-9.9,4.9-8.5,10.7-18.4l-25.1-24.3c2.2-8.3,2.7-10.2,5-18.5L1622.4,936.2z M1480.7,994.6c-38.4,0-69.5-31.1-69.5-69.5
		c0-38.4,31.1-69.5,69.5-69.5s69.5,31.1,69.5,69.5C1550.2,963.5,1519.1,994.6,1480.7,994.6z"/>
</g>
<g id="floor">
	<path class="st6" d="M1813.9,1440.8c0.1,0.4,0.1,0.8,0.1,1.1c0,39.2-385.2,71-860.3,71s-860.3-31.8-860.3-71c0-0.4,0-0.8,0.1-1.1
		l-0.1,0l-1.5-71l0,0c1.2,13.1,45.3,25.3,121.2,35.8l0.3,0.1c0,0,0.1,0,0.1,0c150.3,20.7,424.8,34.6,738.7,34.6
		c314.8,0,590.2-14,740.1-34.8c0.2,0,0.4,0.1,0.6,0.1l1.1-0.3c74.3-10.4,117.3-22.5,118.4-35.4h0l1.4,71L1813.9,1440.8z"/>
	<path class="st7" d="M1812.6,1369.3c0,0.2,0,0.3,0,0.5c-1.2,12.9-44.2,25-118.4,35.4c-0.6,0.1-1.1,0.2-1.7,0.2
		c-149.9,20.8-425.3,34.8-740.1,34.8c-313.8,0-588.4-13.9-738.7-34.6c-0.1,0-0.3,0-0.4-0.1c-75.9-10.5-120-22.7-121.2-35.8
		c0-0.2,0-0.4,0-0.6c0-39.2,385.2-71,860.3-71S1812.6,1330.1,1812.6,1369.3z"/>
</g>
<g id="desktop">
	<ellipse class="st8" cx="955" cy="1389.5" rx="160" ry="25.5"/>
	<path class="st6" d="M999.4,1140.1h-96.6c-9.6,0-17.4,7.8-17.4,17.4v220.9c0,9.6,7.8,17.4,17.4,17.4h96.6c9.6,0,17.4-7.8,17.4-17.4
		v-220.9C1016.8,1147.9,1009,1140.1,999.4,1140.1z"/>
	<path class="st8" d="M1496.8,636.3v536.3c0,18.3-14.8,33.1-33.1,33.1h-1017c-18.3,0-33.1-14.8-33.1-33.1V722.3c0-28.7,0-57.3,0-86
		c0-18.3,14.8-33.1,33.1-33.1h1017C1482,603.1,1496.8,618,1496.8,636.3z"/>
	<path class="st7" d="M1413.9,1168.7H494.2c-18.6,0-33.7-15.1-33.7-33.7V687.1c0-18.6,15.1-33.7,33.7-33.7h919.7
		c18.6,0,33.7,15.1,33.7,33.7v447.9C1447.7,1153.6,1432.6,1168.7,1413.9,1168.7z"/>
	<path class="st6" d="M459.9,691.4h987.2c0.2-3.5,1.2-27.3-14.6-45.9s-36-17.5-39-17.2c-292.3,0-584.5,0-876.8,0
		c-2.8-0.4-25.2-3-42.2,17.2C458.8,664.1,459.7,687.7,459.9,691.4z"/>
	<path class="st9" d="M745.6,571"/>
	<ellipse class="st7" cx="1400.5" cy="661.9" rx="8.5" ry="8.6"/>
	<ellipse class="st7" cx="1363.6" cy="661.9" rx="8.5" ry="8.6"/>
	<ellipse class="st7" cx="1323.5" cy="661.9" rx="8.5" ry="8.6"/>
	<path class="st4" d="M1368.5,656.4h-9.9c-0.3,0-0.5,0.2-0.5,0.5v10c0,0.3,0.2,0.5,0.5,0.5h9.9c0.3,0,0.5-0.2,0.5-0.5v-10
		C1368.9,656.6,1368.7,656.4,1368.5,656.4z M1359.7,658h7.7v7.8h-7.7V658z"/>
	<path class="st4" d="M1318.4,665.8h10.2c0.2,0,0.3,0.1,0.3,0.3v1c0,0.2-0.1,0.3-0.3,0.3h-10.2c-0.2,0-0.3-0.1-0.3-0.3v-1
		C1318.1,666,1318.2,665.8,1318.4,665.8z"/>
	<path class="st4" d="M1404.4,665.7l-0.4,0.4c-0.2,0.2-0.5,0.2-0.7,0l-2.8-3.1l-3.1,2.9c-0.2,0.2-0.5,0.2-0.7,0l-0.4-0.5
		c-0.2-0.2-0.2-0.5,0-0.7l3.1-2.9l-2.8-3.1c-0.2-0.2-0.2-0.5,0-0.7l0.4-0.4c0.2-0.2,0.5-0.2,0.7,0l2.8,3.1l3.1-2.9
		c0.2-0.2,0.5-0.2,0.7,0l0.4,0.5c0.2,0.2,0.2,0.5,0,0.7l-3.1,2.9l2.8,3.1C1404.6,665.3,1404.6,665.6,1404.4,665.7z"/>
	<ellipse class="st8" cx="1442" cy="1385.5" rx="189" ry="31.5"/>
	<ellipse class="st8" cx="667" cy="1407" rx="138" ry="23"/>
	<ellipse class="st8" cx="419" cy="1389.5" rx="95" ry="25.5"/>
	<ellipse class="st8" cx="1113.5" cy="1404" rx="57.5" ry="22"/>
	<ellipse class="st8" cx="1217" cy="1423" rx="36" ry="8"/>
</g>
<g id="logo">
	<path class="st4" d="M878.6,981.7l-54.8,0.9c0,0,38.6,72.4,131.2,72.4s131.3-73.3,131.3-73.3h-54.8c0,0-28.8,27.3-76.5,27.3
		C907.4,1009,878.6,981.7,878.6,981.7z"/>
	<path class="st4" d="M849.6,947.7c0,0-18.2-26.9-15.8-65.8c2.5-38.8,23.3-66.2,23.3-66.2L839,797.6c0,0-29,32.2-36.2,75
		c-7.2,42.8,5.9,78.8,5.9,78.8L849.6,947.7z"/>
	<path class="st4" d="M1060.4,947.7c0,0,18.2-26.9,15.8-65.8c-2.5-38.8-23.3-66.1-23.3-66.1l18.2-18.2c0,0,29,32.2,36.2,75
		s-5.9,78.8-5.9,78.8L1060.4,947.7z"/>
	<polygon class="st5" points="1331,973.7 1018.3,968.5 955.1,824 955.1,788.5 1047.3,946.6 	"/>
	<polygon class="st5" points="862.9,946.6 955.1,788.5 955.1,824 891.8,968.5 579.2,973.7 	"/>
</g>
<g id="person_male">
	<path class="st4" d="M336.5,810.5c2.5,2.5,5.4,4.5,8.6,5.8c-0.9-2.3-0.8-4.8,0.2-6.8c0.4-0.8,1-1.6,1.6-2.2
		c2.9-2.7,6.9-1.9,7.2-1.8c0.1,0,0.2,0,0.3,0c10.9,0.5,14.5-2.1,15.9-4.5c2.2-3.9-1.4-7.9,0.9-12.6c1.7-3.6,5.6-5.1,13.5-7.2
		c5.5-1.5,12.7-3.2,21.4-4.6c1.8,2.8,3.4,6.5,4.7,11.8c0.5,1.8,0.9,3.7,1.2,5.7c0.8-0.1,1.6-0.2,2.4-0.3c2.8-0.2,10.5-0.7,16.2-6.3
		c5.8-5.7,6.2-13.5,6.3-15.3c0.4-8.3-3.1-18.8-10.8-22.5c-5.8-2.8-8.8,0.9-18.9,0.9c-15.2,0-18.2-9.4-30.6-8.1
		c-10.3,1.1-17.2,8.2-18,9c-8.3,8.7-3.7,15.8-11.7,25.2c-3.6,4.2-7.3,6-10.4,7.4c-3.6,1.6-6.4,2.6-7.6,6.1
		C326.9,795.8,330.3,804.4,336.5,810.5z"/>
	<path class="st9" d="M345,816.3c19.9,8.1,36.7-18.3,66.9-22.2c-0.4-1.9-0.8-3.8-1.2-5.7c-1.3-5.2-2.9-9-4.7-11.8
		c-8.7,1.4-15.9,3.1-21.4,4.6c-7.9,2.1-11.8,3.6-13.5,7.2c-2.3,4.7,1.3,8.7-0.9,12.6c-1.4,2.4-5,5-15.9,4.5c-0.1,0-0.2,0-0.3,0
		c-0.3-0.1-4.3-0.9-7.2,1.8c-0.7,0.6-1.2,1.4-1.6,2.2C344.2,811.6,344.1,814,345,816.3z"/>
	<path d="M457.9,1356.3c1.2-10.2,2.4-20.4,3.6-30.6c-67-30.8-80.4-52.7-79.2-67.5c1.1-13.6,14.4-19.3,27.9-38.7
		c19.6-28.3,22-60.8,20.7-84.6c-27.7,0.1-55.4,0.3-83.1,0.4c-8.1,18-18.9,44.3-28.5,77c-10.1,34.6-15.2,51.9-12.6,65.7
		C317.8,1336.1,444.9,1354.6,457.9,1356.3z"/>
	<path class="st10" d="M422.8,1134.9c-25.8,0-51.6,0-77.4,0c-12.1-42.9-16-79.3-17.1-105.3c-1.4-32.3,1.1-53.5,3.6-73.8
		c7.5-61,20.4-71.4,25.2-74.7c12.4-8.6,30.6-11.1,45-4.5c4.8,2.2,16.4,8.7,27,36.9c6,15.9,8.7,30.8,9.9,77.4
		c1.2,44.2,1.8,71.3-3.6,108.9c-2.1,14.5-4.5,26.6-6.3,35.1H422.8"/>
	<path class="st4" d="M394.9,1365.3H430v-230.4c-27.9,0-55.8,0-83.7,0c2.7,36.4,8.1,78,18,123.3
		C373.1,1298.3,383.8,1334.1,394.9,1365.3z"/>
	<path class="st11" d="M445.3,1008c0.7,4.8,1.2,8.4,1.7,11.2c1.3,7.8,1.4,8.5,1.7,10.7c0.5,3.9,0.9,9.6,0.3,16.8
		c-7.3,30.2-15.2,54.2-21.3,71c-13.7,38.1-22.8,52.1-25.5,51.4c-0.1,0-0.3-0.1-0.3-0.1c-0.8-0.4-1.2-1.8-5.1-7.1
		c-2.8-3.8-5.3-6.8-7.2-9c3.5-19.2,7.1-38.4,10.8-57.6c3.3-17.1,6.6-34.2,9.9-51.3c-4.4-8.7-9.5-20.9-12.6-36
		c-3.3-15.9-3.4-29.6-2.7-39.6H439c0.9,4.4,2.3,11.3,3.6,19.8C443.8,996.1,443.8,997.5,445.3,1008z"/>
	<path class="st12" d="M398.5,901.8c-16.3,20.1-11.2,58.9-9.9,67.5c6,1.7,13.6,3.2,22.5,3.6c14,0.6,25.6-2,33.3-4.5
		c0.9-8.1,5-48.4-13.5-67.5c-3-3.1-9.1-9.5-17.1-9C406.2,892.3,401.1,898.7,398.5,901.8z"/>
	<path class="st11" d="M345,815.4c0.1,0.7,1.4,8.2,6.3,9c2.5,0.4,4.6-1.1,5.4-1.8c1.6,4,3.6,9.5,5.4,16.2c0.8,3,1.9,7.4,2.7,12.6
		c0.8,5.6,1.4,13.9,0,24.3c-0.2,2.5-1,4.8-2.7,6.3c-0.2,0.2-0.3,0.2-0.3,0.4c0.1,2.3,41.7,2.3,41.7,2.3c-1.9-3.6-3.8-7.5-5.6-11.8
		c-3.2-7.8-5.4-15-7-21.5c2.9,0.8,5.2,0.7,6.9,0.2c13.7-3.7,18.6-33.9,14.1-58.5c-0.4-1.9-0.8-3.8-1.2-5.7c-1.3-5.2-2.9-9-4.7-11.8
		c-8.7,1.4-15.9,3.1-21.4,4.6c-7.9,2.1-11.8,3.6-13.5,7.2c-2.3,4.7,1.3,8.7-0.9,12.6c-1.4,2.4-5,5-15.9,4.5v0.1
		c-0.2,0-1.4-0.2-2.8,0c-0.4,0-2.9,0.4-4.6,2.1c-1,0.9-1.5,2.1-1.8,3.2C344.5,812.3,344.9,814.5,345,815.4z"/>
	<path class="st9" d="M532.6,801.9"/>
	<path class="st9" d="M470.5,819"/>
	<path class="st9" d="M321.6,797.4"/>
	<path class="st9" d="M438.6,816.3"/>
	<path class="st13" d="M430,1365.3c1,4.7,1.7,10.5,1.8,17.1c0,5.1-0.3,9.6-0.9,13.5c-11.4,0-22.8,0-34.2,0c-12,0-24,0-36,0
		c0.4-3,1.5-8.7,5.4-14.4c3.9-5.7,8.7-8.6,11.7-10.4c4.3-2.5,9.2-4.4,17.1-5.8C402.2,1364,414.3,1362.8,430,1365.3z"/>
	<path class="st13" d="M461.2,1325.8c4.7,1.1,10.3,2.9,16.2,5.6c4.6,2.1,8.5,4.4,11.8,6.6c-4.9,10.3-9.7,20.6-14.5,31
		c-5.1,10.9-10.2,21.7-15.3,32.6c-2.6-1.6-7.2-5-10.7-11c-3.5-6-4.1-11.5-4.4-15c-0.5-5-0.1-10.3,2-17.9
		C448.2,1350.4,452.3,1338.9,461.2,1325.8z"/>
</g>
<g id="person_female">
	<path class="st14" d="M1387.5,1330.5c-14.7-6-29.3-12-44-18c18.8-23.4,32.1-44.4,41-60c22.6-39.5,30.2-66.7,48-67.9
		c8.3-0.5,18.2,4.6,21.8,12.4c8.2,17.7-20.5,39.1-47.7,90.4C1397.2,1305.1,1391.1,1320.4,1387.5,1330.5z"/>
	<path class="st15" d="M1673.5,1141.7c0.5,54.1-68,105.6-107.1,92.7c-21.2-7-36.6-33.7-40.5-40.5c-12.8-22.2-11.9-38.7-27.9-47.7
		c-10.1-5.7-13.4-0.7-25-4.4c0.7-3.3,1.4-6,1.9-8.1c1.8-6.7,3.8-12.2,5.4-16.2c0.8,0.7,2.9,2.2,5.4,1.8c4.9-0.8,6.2-8.3,6.3-9
		c0.1-0.9,0.5-3.2-0.1-5.4c-0.3-1.2-0.8-2.3-1.8-3.2c-1.8-1.7-4.3-2.1-4.6-2.1c-1.4-0.2-2.6,0-2.8,0v-0.1c-0.4,0-0.7,0-1.1,0
		c-5.6,5.7-11.6,9.1-15.1,7.9c-7.9-2.6-2.8-27.2-14.1-32.3c0,0,0,0,0,0c-0.1-0.1-0.2-0.1-0.3-0.1c-0.9-0.4-1.8-0.6-2.7-0.6
		c-6.4-0.5-12,6.1-18.9,3.3c-0.8-0.3-1.6-0.8-2.3-1.3c-0.7,1.7-1.3,3.7-1.8,5.9c-0.5,1.8-0.9,3.7-1.2,5.7c-0.3,1.4-0.5,2.8-0.7,4.3
		c-0.1,0-0.1-0.1-0.2-0.2c-8.6-8.2-14.3-24.4-9-36c7.1-15.7,31.1-16.1,34.2-16.2c19.2-0.4,20.9,10.6,46.8,14.4
		c17.2,2.5,22.5-1.4,32.4,4.5c9.1,5.5,9.3,11.6,18.9,22.5c2.1,2.3,15.8,18.2,31.5,22.5c27.3,7.4,43.9-22.7,65.7-16.2
		C1663.2,1093.2,1673.3,1121.3,1673.5,1141.7z"/>
	<g>
		<path class="st10" d="M1500.3,1295.3c-2.9,31-12.1,55.8-18.2,71.9c-1.3,3.4-2.3,6.1-3,7.7c-15.3-6.5-72.3-30.5-81.9-28.6
			c-0.3,0.1-0.7,0.1-0.7,0.1c-6.3,1.2-11.9,3.3-16.7,5.8c-5.1,1.9-10,4.1-14.9,6.3c19.2-32,28.8-59.8,34-79.6
			c14-52.9,7.2-87.9,31.6-102.7c13.7-8.3,32.8-7.5,45,0c18.3,11.2,20.9,37.1,24.3,72C1500.8,1257.9,1502.3,1273.8,1500.3,1295.3z"/>
		<path class="st10" d="M1500.3,1295.3c-2.9,31-12.1,55.8-18.2,71.9c-1.3,3.4-2.3,6.1-3,7.7c-15.3-6.5-72.3-30.5-81.9-28.6
			c-0.3,0.1-0.7,0.1-0.7,0.1c-6.3,1.2-11.9,3.3-16.7,5.8c-5.1,1.9-10,4.1-14.9,6.3c19.2-32,28.8-59.8,34-79.6
			c14-52.9,7.2-87.9,31.6-102.7c13.7-8.3,32.8-7.5,45,0c18.3,11.2,20.9,37.1,24.3,72C1500.8,1257.9,1502.3,1273.8,1500.3,1295.3z"/>
		<path class="st10" d="M1500.3,1295.3c-2.9,31-12.1,55.8-18.2,71.9c-1.3,3.4-2.3,6.1-3,7.7c-15.3-6.5-72.3-30.5-81.9-28.6
			c-0.3,0.1-0.7,0.1-0.7,0.1c-6.3,1.2-11.9,3.3-16.7,5.8c-5.1,1.9-10,4.1-14.9,6.3c19.2-32,28.8-59.8,34-79.6
			c14-52.9,7.2-87.9,31.6-102.7c13.7-8.3,32.8-7.5,45,0c18.3,11.2,20.9,37.1,24.3,72C1500.8,1257.9,1502.3,1273.8,1500.3,1295.3z"/>
	</g>
	<path class="st14" d="M1605.1,1358.6c-0.1,3-0.7,7.3-3.6,10.8c-3.8,4.6-9.6,5.3-17.1,6.3c-6.6,0.9-16.4,2.3-28.8,4.5
		c0.5,0.1,3.8,1.1,5.4,4.5c1.7,3.5,0.2,6.8,0,7.2c-2.5,0.3-8.3,0.7-13.5-2.7c-4.6-3-7.6-8.3-8.4-14.4c-29.1-22-60.2-54.5-76.2-99.9
		c-5.6-15.9-22.9-65-1.8-83.7c5.5-4.9,15.6-9.4,24.3-6.3c20.4,7.3,13,49.4,28.8,98.1c6.4,19.7,19.1,48.2,47.1,79.3
		c-0.1,0.1-0.3,0.2-0.4,0.2c3,0,6-0.1,9.1-0.3C1582.8,1361.6,1594.6,1360.3,1605.1,1358.6z"/>
	<g>
		<path class="st16" d="M1383.9,1346.7c-9.3,4.6-16,10.6-19.9,14.6c1.8-2.8,3.5-5.5,5.1-8.2
			C1373.9,1350.8,1378.9,1348.7,1383.9,1346.7z"/>
		<path class="st17" d="M1383.9,1346.7c-9.3,4.6-16,10.6-19.9,14.6c1.8-2.8,3.5-5.5,5.1-8.2
			C1373.9,1350.8,1378.9,1348.7,1383.9,1346.7z"/>
		<path class="st17" d="M1383.9,1346.7c-9.3,4.6-16,10.6-19.9,14.6c1.8-2.8,3.5-5.5,5.1-8.2
			C1373.9,1350.8,1378.9,1348.7,1383.9,1346.7z"/>
	</g>
	<path d="M1362.2,1388.1c-8.6-2.9-14.3-8.8-38.9-33.5c-12.3-12.4-23.4-25.4-32.3-37.6c-8.3,10-16.8,21.2-25.3,33.6
		c-14.3,21-25.4,41.2-34.1,59.4c-7.1-4.1-14.2-8.1-21.3-12.2c2-15.9,6.3-36.8,15.9-59.7c13.5-32.3,31.8-55.1,45.2-69.2
		c0.1-0.2,0.3-0.5,0.6-0.8c13.3-15.2,77.5,6.8,113.2,49.4c2.9,3.5,36.7,44.5,23.4,63.9C1400.4,1393.2,1377.3,1393.1,1362.2,1388.1z"
		/>
	<path class="st4" d="M1480.5,1372.3c0,9.4-12.5,16.4-26.1,24.3c-7.3,4.3-17.8,8.2-49,15.3c-17,3.9-33.9,6.4-49,7.6
		c4.1,12.3,9.1,25.5,15.2,39.2c10.3,23.3,21.6,43.4,32.4,60.3c-7.2,3.9-14.4,7.8-21.6,11.7c-12.5-10.1-27.9-24.8-42.3-45
		c-20.3-28.5-30-56.1-34.9-74.9c-0.2-0.4-0.3-0.7-0.3-0.9c-4.4-14.3,25.5-40.1,63.3-57.7c4.8-2.3,9.8-4.4,14.9-6.3
		c5.5-2.1,11.1-4.1,16.7-5.8c0,0,0.3-0.1,0.7-0.1C1411.1,1337.8,1480.6,1349.9,1480.5,1372.3z"/>
	<path class="st13" d="M1403.3,1517.7c3.6,3.2,7.6,7.4,11.6,12.7c3,4,5.4,7.9,7.3,11.4c-9.2,6.8-18.4,13.5-27.6,20.3
		c-9.7,7.1-19.3,14.2-29,21.3c-1.5-2.7-4-7.9-4.2-14.8c-0.2-6.9,1.9-12,3.3-15.3c2-4.6,4.8-9.1,10.3-14.8
		C1380.2,1533.2,1389.2,1525,1403.3,1517.7z"/>
	<path class="st13" d="M1234.5,1403.9c-1.8,4.5-4.3,9.7-7.9,15.3c-2.8,4.2-5.6,7.8-8.2,10.8c-9.5-6.3-19-12.6-28.5-18.9
		c-10-6.6-20-13.2-30-19.9c2-2.3,6-6.4,12.4-9c6.4-2.6,12-2.4,15.5-2.2c5,0.3,10.2,1.4,17.5,4.6
		C1212,1387.5,1222.8,1393.2,1234.5,1403.9z"/>
	<path class="st14" d="M1492,1110.4c-0.1,0.7-1.4,8.2-6.3,9c-2.5,0.4-4.6-1.1-5.4-1.8c-1.6,4-3.6,9.5-5.4,16.2
		c-0.6,2.1-1.3,4.8-1.9,8.1c-0.3,1.4-0.6,2.9-0.8,4.5c-0.8,5.6-1.4,13.9,0,24.3c0.1,1.6,0.5,3,1.1,4.3c0.4,0.8,0.9,1.4,1.6,2
		c0.2,0.2,0.3,0.2,0.3,0.4c-0.1,2.3-41.7,2.3-41.7,2.3c1.1-2.1,2.2-4.3,3.3-6.6c0.8-1.7,1.6-3.5,2.4-5.3c3.2-7.8,5.4-15,7-21.4
		c-2.9,0.8-5.2,0.7-6.9,0.2c-12.9-3.5-18.1-30.5-14.8-54.2c0.2-1.4,0.4-2.9,0.7-4.3c0.4-1.9,0.8-3.8,1.2-5.7
		c0.6-2.2,1.2-4.2,1.8-5.9c0.8,0.5,1.5,1,2.3,1.3c6.9,2.7,12.5-3.8,18.9-3.3c1,0.3,2,0.5,2.9,0.8c0,0,0,0,0,0
		c11.3,5.1,6.2,29.7,14.1,32.3c3.5,1.2,9.6-2.2,15.1-7.9c0.3,0,0.7,0,1.1,0v0.1c0.2-0.1,1.4-0.2,2.8,0c0.3,0.1,2.8,0.4,4.6,2.1
		c1,0.9,1.5,2.1,1.8,3.2C1492.5,1107.2,1492.2,1109.5,1492,1110.4z"/>
</g>
<g id="person_third">
	<path class="st13" d="M757.7,1398.8c-10.7-12.8-29.7-14-38-14c-3,9.7-6,19.3-9,29c20.3,6.7,34.1,5.4,41,4c6.9-1.4,10-3.3,11-6
		C764.5,1407,759.6,1401.1,757.7,1398.8z"/>
	<path class="st18" d="M629.4,1130.7c-15.8,6.2-33.4,1.2-42.5-11.6c-7.5-10.3-8.3-24.4-2.4-36.5c-10-17.1-8.5-37.6,3-50.4
		c11.2-12.5,27.3-12.8,30.4-12.8c1.3-2.7,7.5-14.1,21.3-18.8c18.7-6.5,34.5,5.1,35.9,6.1c3.6-1.3,22.1-7.2,41.3,2.4
		c13.4,6.7,20.1,17.5,22.5,21.9c1.9-0.2,16.3-1.6,24.9,7.9c9.4,10.4,8.5,30.3-5.5,44.4c18.9,8.2,27,28,21.9,41.3
		c-5.9,15.3-30.2,24.8-51,12.2c-6.8,4.3-22.9,13.2-45,13.4C655,1150.3,635.1,1135.3,629.4,1130.7z"/>
	<path class="st5" d="M577.2,1295.4c-15.7-47.1,35.1-115,92.4-117.3c65.1-2.6,120,80.2,101.5,126.4c-13.7,34.1-65.8,43.9-96,43.2
		C644,1346.9,590.1,1334.1,577.2,1295.4z"/>
	<path class="st19" d="M716,1113.6c-0.1,0.8-1.7,9.9-7.5,10.8c-3,0.5-5.5-1.4-6.5-2.2c-1.9,4.8-4.3,11.4-6.5,19.4
		c-0.7,2.5-1.5,5.8-2.3,9.7c-0.3,1.7-0.7,3.5-0.9,5.4c-1,6.7-1.7,16.7,0,29.1c0.2,1.9,0.5,3.7,1.3,5.1c0.5,0.9,1.1,1.7,1.9,2.4
		c0.2,0.2,0.4,0.3,0.4,0.4c-0.1,2.8-50,2.8-50,2.8c1.3-2.5,2.6-5.1,3.9-7.9c1-2,1.9-4.2,2.8-6.4c3.9-9.3,6.5-18,8.3-25.7
		c-3.5,1-6.2,0.8-8.3,0.3c-15.5-4.2-21.6-36.6-17.7-65c0.2-1.7,0.5-3.4,0.8-5.1c0.4-2.3,0.9-4.6,1.5-6.8c0.7-2.7,1.4-5,2.2-7.1
		c0.9,0.6,1.8,1.2,2.8,1.5c8.3,3.3,15-4.6,22.7-4c1.2,0.3,2.4,0.6,3.5,0.9c0,0,0,0,0,0c13.5,6.1,7.5,35.6,16.9,38.7
		c4.2,1.4,11.5-2.7,18.2-9.5c0.4,0,0.8,0,1.3,0v0.1c0.3-0.1,1.7-0.3,3.4,0c0.4,0.1,3.4,0.5,5.5,2.6c1.2,1.1,1.8,2.5,2.2,3.8
		C716.6,1109.8,716.1,1112.5,716,1113.6z"/>
	<path class="st6" d="M611.1,1246.8h121.1c4.3,0,7.6,3.7,7.1,8c-2.9,23.4-5.7,46.8-8.6,70.3c-0.4,3.6-3.5,6.3-7.1,6.3H616.2
		c-3.7,0-6.8-2.9-7.1-6.6c-1.7-23.4-3.4-46.8-5-70.3C603.7,1250.3,607,1246.8,611.1,1246.8z"/>
	<path d="M714.2,1414.1l9.1-28.6c-48.6-46.1-91.5-63.2-117.9-70.5c-37.5-10.3-46-1.9-48,0.6c-8.6,10.5,1.3,31.5,3.7,36.5
		C586.1,1405.3,686.6,1412.7,714.2,1414.1z"/>
	<path class="st4" d="M621.2,1413.3l-9.1-28.6c48.6-46.1,91.5-63.2,117.9-70.5c37.5-10.3,46-1.9,48,0.6c8.6,10.5-1.3,31.5-3.7,36.5
		C749.3,1404.5,648.8,1411.9,621.2,1413.3z"/>
	<path class="st13" d="M575,1398.6c10.7-12.4,29.7-13.6,38-13.6c3,9.4,6,18.8,9,28.2c-20.3,6.5-34.1,5.2-41,3.9
		c-6.9-1.3-10-3.2-11-5.8C568.1,1406.6,573.1,1400.8,575,1398.6z"/>
	<circle class="st7" cx="671" cy="1287" r="8"/>
</g>
<g id="skizze" class="st20">
	<g class="st21">
		<g>
			<path d="M676.9,839.2c-10.4,14.9-15.9,33-16.2,51.2c-0.1,9.1,1,18.2,3.5,26.9c2.5,8.7,6.2,18,13,24.2c13,11.9,33.4,8,45.9-2.5
				c7-5.9,12.2-13.7,16.3-21.9c4.1-8.4,7.4-17.3,9.9-26.3c5.1-17.9,7.3-37.7,1.4-55.8c-2.8-8.5-7.4-16.9-14.2-22.8
				c-6.8-5.9-15.5-8.5-24.4-6.8c-8.8,1.7-16.8,6.9-23.2,13c-6.9,6.6-12.5,14.7-16.6,23.2c-8,16.5-10.3,35.9-3,53
				c6.3,14.8,19.6,27.6,36,29.8c14.8,2,30.9-4.6,39.3-17.2c2-3,3.5-6.4,4.4-10c0.5-1.9-2.4-2.7-2.9-0.8c-3.5,13.9-17,23.4-30.8,25
				c-15.4,1.8-29.7-6.5-38.2-19.1c-4.4-6.5-7.4-13.9-8.6-21.7c-1.4-8.8-0.4-17.8,2.1-26.3c2.6-8.8,6.8-17,12.2-24.4
				c5.2-7.1,11.6-13.5,19.3-17.8c7.3-4.1,15.9-6,24-3c8,2.9,13.9,9.9,17.8,17.2c8.5,15.8,8.7,34.6,5.4,51.8
				c-1.7,8.9-4.4,17.6-7.6,26.1c-3.1,8.1-6.8,16.1-12,23.1c-4.9,6.7-11.3,12.6-19.2,15.6c-7.2,2.8-15.5,3.7-22.9,1.1
				c-8.3-2.9-13.5-10-16.9-17.8c-3.5-7.8-5.6-16.3-6.5-24.8c-1.8-17.1,1.2-34.8,8.9-50.3c1.9-3.7,4-7.3,6.4-10.8
				C680.6,839.1,678,837.6,676.9,839.2L676.9,839.2z"/>
		</g>
	</g>
	<g class="st21">
		<g>
			<path d="M715.2,808.7c2.1,11.9,4.2,23.8,6.3,35.6c0.3,1.9,3.2,1.1,2.9-0.8c-2.1-11.9-4.2-23.8-6.3-35.6
				C717.7,806,714.8,806.8,715.2,808.7L715.2,808.7z"/>
		</g>
	</g>
	<g class="st21">
		<g>
			<path d="M719.4,963.6c0.1-20.7,0.2-41.5,0.3-62.2c0.1-20.7,0.2-41.5,0.3-62.2c0.1-11.7,0.1-23.3,0.2-35c0-1.6-2.7-2.1-3-0.4
				c-2.8,18.6-4.1,37.5-3.9,56.3c0,1.9,3,1.9,3,0c-0.2-18.6,1-37.2,3.8-55.5c-1-0.1-2-0.3-3-0.4c-0.1,20.7-0.2,41.5-0.3,62.2
				c-0.1,20.7-0.2,41.5-0.3,62.2c-0.1,11.7-0.1,23.3-0.2,35C716.4,965.5,719.4,965.5,719.4,963.6L719.4,963.6z"/>
		</g>
	</g>
	<g class="st21">
		<g>
			<path d="M712.7,931.2c1.9,42.8,3.7,85.7,5.6,128.5c1.9,42.6,3.7,85.3,5.6,127.9c1,24.1,2.1,48.1,3.1,72.2c0.1,1.9,3.1,1.9,3,0
				c-1.9-42.8-3.7-85.7-5.6-128.6c-1.9-42.6-3.7-85.3-5.6-127.9c-1-24-2.1-48.1-3.1-72.2C715.6,929.3,712.6,929.3,712.7,931.2
				L712.7,931.2z"/>
		</g>
	</g>
	<g class="st21">
		<g>
			<path d="M709.2,1181.3c-9.7,29.7-19.4,59.5-29.1,89.2s-19.4,59.5-29.1,89.2c-2.7,8.2-5.3,16.4-8,24.5
				c-2.2,6.5-4.8,13.1-10.2,17.6c0.8,0.6,1.6,1.2,2.4,1.8c11.5-25.1,22.3-50.6,32.3-76.3c10-25.6,19.2-51.6,27.6-77.7
				c4.8-14.8,9.3-29.7,13.6-44.7c0.4-1.4-1.1-2.2-2.2-1.7c-9.4,4.3-15.8,13.8-16.8,24.1c-0.2,1.9,2.8,1.9,3,0
				c0.8-9.3,6.9-17.6,15.3-21.5c-0.7-0.6-1.5-1.1-2.2-1.7c-7.5,26.4-15.9,52.7-25,78.6c-9.1,25.9-19,51.6-29.6,77
				c-6,14.3-12.2,28.4-18.6,42.4c-0.7,1.6,1,2.9,2.4,1.8c4.8-4.1,7.6-9.8,9.8-15.6c2.5-6.8,4.6-13.8,6.9-20.8
				c4.9-15,9.8-30.1,14.7-45.1c9.8-29.9,19.5-59.8,29.3-89.7c5.5-16.9,11.1-33.9,16.6-50.8C712.7,1180.3,709.8,1179.5,709.2,1181.3
				L709.2,1181.3z"/>
		</g>
	</g>
	<g class="st21">
		<g>
			<path d="M709.7,1179.5c3.5,14,9.1,27.4,13.8,41c4.8,13.7,9.4,27.4,13.8,41.2c8.8,27.6,16.8,55.5,24.1,83.5
				c4,15.8,7.9,31.6,11.4,47.4c1-0.3,1.9-0.5,2.9-0.8c-7.4-22-14.9-44-22.3-66.1c-7.4-21.9-14.8-43.9-22.3-65.8
				c-4.2-12.4-8.4-24.8-12.6-37.2c-0.6-1.8-3.4-1.1-2.9,0.8c4,16.3,8.3,32.5,13,48.6c1.3,4.6,2.7,9.2,4,13.7
				c0.6,1.8,3.5,1.1,2.9-0.8c-4.8-16.1-9.4-32.2-13.6-48.4c-1.2-4.6-2.4-9.2-3.5-13.9c-1,0.3-1.9,0.5-2.9,0.8
				c7.4,22,14.9,44,22.3,66.1c7.4,21.9,14.8,43.9,22.3,65.8c4.2,12.4,8.4,24.8,12.6,37.2c0.6,1.8,3.3,1.1,2.9-0.8
				c-6.3-28.3-13.5-56.4-21.4-84.3s-16.6-55.5-26.1-82.9c-2.6-7.6-5.3-15.2-8.1-22.7c-2.8-7.7-5.5-15.4-7.5-23.3
				C712.1,1176.9,709.2,1177.7,709.7,1179.5L709.7,1179.5z"/>
		</g>
	</g>
	<g class="st21">
		<g>
			<path d="M709.5,963.2c-8,1.9-13.8,8-18.2,14.5c-2.5,3.6-4.5,7.4-6.7,11.2c-2.5,4.5-5,8.9-7.5,13.4c-9.9,18-19.7,36.1-28.5,54.7
				c-8.7,18.4-16.6,37.3-22.7,56.7c-1.3,4-2.7,8-3,12.2c-0.2,3.2,0.4,6.9,2.9,9c3.8,3.1,8.5,1.1,12.5-0.3c4.8-1.6,9.5-3.1,14.4-4.4
				c18.7-5.1,38.9-7.6,57.9-2.1c2.3,0.7,4.6,1.5,6.9,2.4c1.8,0.7,2.6-2.2,0.8-2.9c-17.8-7.1-37.3-6.5-55.8-2.7
				c-9.5,1.9-18.7,4.9-27.9,7.9c-2,0.7-4.3,1.4-6.3,0.2c-1.2-0.7-1.8-1.9-2.2-3.3c-0.8-3.3,0-6.8,0.9-9.9c5.7-19,13-37.4,21.3-55.4
				c8.4-18.2,17.7-35.9,27.3-53.4c4.7-8.5,9.3-17,14.1-25.4c3.8-6.6,8.2-13.7,15.1-17.5c1.7-0.9,3.4-1.6,5.3-2
				C712.2,965.6,711.4,962.8,709.5,963.2L709.5,963.2z"/>
		</g>
	</g>
	<g class="st21">
		<g>
			<path d="M721.4,960.4c8.4,10.1,18.4,18.8,29.6,25.7c5.7,3.5,11.8,6.8,18.4,8.3c6.3,1.3,12.6,0.7,18.6-1.6
				c6.1-2.3,11.5-5.9,16.7-9.8c5.3-4,10.4-8.3,15.4-12.7c10-8.8,19.4-18.2,28.2-28.1c10-11.2,19.2-23.1,27.5-35.6c0.8-1.2-0.8-3-2-2
				c-17.3,12.9-32.6,28.3-46.3,45.1c-13.8,16.8-26,34.8-37.5,53.2c-6.5,10.4-12.9,20.9-19.2,31.5c-1,1.7,1.6,3.2,2.6,1.5
				c11.1-18.5,22.3-37.1,34.5-54.9c12.1-17.7,25.3-34.7,40.3-50c8.4-8.6,17.5-16.6,27.1-23.8c-0.7-0.7-1.4-1.4-2-2
				c-14.5,21.6-31.5,41.5-50.7,59c-4.7,4.3-9.6,8.5-14.6,12.6c-4.9,4-10,7.9-15.6,10.9c-5.5,2.9-11.5,4.9-17.7,4.6
				c-6.6-0.3-12.7-3.1-18.4-6.3c-12.5-7.1-23.5-16.5-32.7-27.5C722.2,956.8,720.1,958.9,721.4,960.4L721.4,960.4z"/>
		</g>
	</g>
	<g class="st21">
		<g>
			<path d="M1127.6,865.5c-19.6,2.5-38.3,11.6-51.8,26c-13.9,14.9-21.3,35-19.9,55.3c0.7,10.2,3.4,20.3,8.4,29.2
				c4.7,8.4,11.4,15.5,19.3,21c15.5,10.6,35.8,14.6,53.9,8.6c18.3-6.1,32-20.7,41.6-36.9c5-8.4,9-17.4,12.4-26.5
				c4.1-11.1,7.5-22.6,9.2-34.3c1.8-11.8,1.9-23.8-0.7-35.5c-2.2-9.7-6.6-18.8-12.8-26.6c-5.9-7.3-13.4-13.3-22-16.9
				c-9.1-3.8-19-4.5-28.5-2c-10.3,2.8-19.7,8.9-27.4,16.1c-6.8,6.3-12.5,14-16.7,22.3c-8.1,15.8-11.5,35.2-4.7,52.1
				c1.6,4,3.7,7.8,6.4,11.2c0.5,0.7,1.3,1,2.1,0.5c0.6-0.4,1-1.4,0.5-2c-10.7-13.9-11.6-32.2-6.4-48.5c5.6-17.6,17.6-33.2,33.5-42.8
				c8.6-5.2,18.4-8.2,28.5-7.2c8.9,0.9,17.3,5,24.2,10.6c7.1,5.8,12.7,13.2,16.5,21.5c4.5,9.7,6.2,20.7,6.1,31.3
				c-0.1,11.6-2.3,23.1-5.5,34.3c-2.8,9.8-6.2,19.3-10.5,28.5c-7.7,16.5-18.4,32.6-34.2,42.3c-7.7,4.7-16.4,7.7-25.4,8.3
				c-9,0.6-18.1-1.1-26.4-4.5c-8.3-3.4-15.9-8.6-22-15.2c-6.6-7.1-11.2-15.8-13.7-25c-5.2-18.8-2.1-39.7,8.3-56.2
				c10.1-16,26.5-27.6,44.5-33c4.4-1.3,9-2.3,13.6-2.9C1129.5,868.3,1129.5,865.3,1127.6,865.5L1127.6,865.5z"/>
		</g>
	</g>
	<g class="st21">
		<g>
			<path d="M1129.1,863.5c7.7-12.8,16.2-27.4,14.1-42.9c-1.7-12.1-10.2-24.2-23.3-24.9c-6.9-0.4-13.7,2.6-18.9,7
				c-5.6,4.7-9.3,11.3-11.6,18.2c-2.4,7.2-3.5,15-3.9,22.6c-0.4,7.7,0.1,15.6,2,23.1c3.5,13.8,12.3,26.3,25.6,32.1
				c6.2,2.7,13,3.8,19.7,2.6c6.3-1.1,12.1-4.3,16.8-8.7c9.6-8.8,14.7-22,14.7-34.9c0-12.8-4.6-25.8-13.2-35.4
				c-8.2-9.2-19.9-14.5-32.3-14c-11.6,0.4-23.3,5.5-30.6,14.7c-1.8,2.2-3.2,4.6-4.4,7.2c-0.8,1.8,1.8,3.3,2.6,1.5
				c4.4-10,13.7-16.7,24.1-19.3c10.9-2.7,22.4-0.8,31.6,5.8c9.7,6.9,15.9,18,18.2,29.6c2.4,12,0.2,24.6-6.4,34.9
				c-6.6,10.3-17.7,17.2-30.2,15.8c-12.9-1.5-23.9-10.9-29.5-22.3c-6.4-13-6.9-28.4-4.7-42.5c2-13.3,7.3-27.7,20.6-33.3
				c5.7-2.4,12.2-2.6,17.7,0.4c4.9,2.7,8.5,7.5,10.5,12.6c5.2,13.2,0.3,26.9-6.2,38.8c-1.8,3.3-3.7,6.5-5.6,9.7
				C1125.5,863.6,1128.1,865.1,1129.1,863.5L1129.1,863.5z"/>
		</g>
	</g>
	<g class="st21">
		<g>
			<path d="M1143.7,882.7c0.3,48.5,0.6,97,1,145.6c0.3,48.3,0.6,96.6,1,144.8c0.2,27.2,0.4,54.5,0.5,81.7c0,1.9,3,1.9,3,0
				c-0.3-48.5-0.6-97.1-1-145.6c-0.3-48.3-0.6-96.6-1-144.8c-0.2-27.2-0.4-54.5-0.5-81.7C1146.7,880.8,1143.7,880.8,1143.7,882.7
				L1143.7,882.7z"/>
		</g>
	</g>
	<g class="st21">
		<g>
			<path d="M1150.4,1180.6c-13.4,12.7-25.1,27.1-34.8,42.8c-9.7,15.7-17.5,32.6-22.9,50.2c-3.1,10-5.5,20.2-7.1,30.5
				c-0.3,1.7,1.7,2.6,2.7,1.2c10.9-14.6,20.7-30,29.1-46.2c8.5-16.2,15.7-33.1,21.4-50.4c3.3-9.7,6.1-19.6,8.4-29.6
				c-1,0-1.9,0-2.9,0c4.1,20.1,9.3,40,15.5,59.5c6.2,19.5,13.4,38.7,21.7,57.5c4.6,10.6,9.6,21.1,14.9,31.3c0.9,1.7,3.5,0.2,2.6-1.5
				c-9.3-18.2-17.6-36.8-24.9-55.8c-7.3-19.1-13.7-38.5-18.9-58.3c-3-11.1-5.6-22.3-7.9-33.5c-0.3-1.5-2.6-1.4-2.9,0
				c-4.2,17.7-9.8,35-16.7,51.7c-6.9,16.8-15.3,33-24.8,48.4c-5.3,8.7-11.1,17.1-17.2,25.3c0.9,0.4,1.8,0.8,2.7,1.2
				c2.8-18.1,8-35.8,15.4-52.6c7.3-16.6,16.7-32.4,27.9-46.7c6.4-8.1,13.3-15.7,20.8-22.8
				C1153.9,1181.3,1151.8,1179.2,1150.4,1180.6L1150.4,1180.6z"/>
		</g>
	</g>
	<g class="st21">
		<g>
			<path d="M353.6,706.5c11.5,1.3,23.6,3.8,32.5,11.7c3.8,3.4,7,7.7,8.5,12.6c1.4,4.7,1.6,10,4.9,13.9c3.6,4.3,10.4,4.5,14.4,0.7
				c1.4-1.3-0.7-3.4-2.1-2.1c-1.6,1.5-4,2.1-6.2,1.7c-2.3-0.5-4-2-5.1-4.1c-1.1-2.1-1.5-4.6-2-6.9c-0.5-2.4-1.1-4.8-2.2-7.1
				c-4.2-9.6-13.4-15.9-23-19.3c-6.4-2.2-13-3.3-19.7-4C351.7,703.3,351.7,706.3,353.6,706.5L353.6,706.5z"/>
		</g>
	</g>
	<g class="st21">
		<g>
			<path d="M347.5,730.7c-2.1,1.8-5.6,0.4-7.7-0.6c-2.5-1.2-4.8-2.8-6.8-4.8c-3.9-3.9-6.5-9-7.4-14.4c-0.9-5.8,0.2-12,2.9-17.3
				c2.6-5.1,7-10.9,12.8-12.4c3.6-0.9,7.5,0.7,10.9,2c3.7,1.4,7.2,3.2,10.5,5.2c1.7,1,3.2-1.6,1.5-2.6c-3.3-2-6.8-3.7-10.4-5.2
				c-3.5-1.4-7.5-3-11.4-2.6c-6.9,0.7-12.3,6.7-15.6,12.3c-3.4,5.9-5.1,13-4.3,19.8c0.8,6.4,3.6,12.4,8.1,17
				c2.5,2.6,5.5,4.7,8.8,6.1c3.3,1.4,7.3,2.3,10.2-0.3C351.1,731.5,348.9,729.4,347.5,730.7L347.5,730.7z"/>
		</g>
	</g>
	<g class="st21">
		<g>
			<path d="M354.9,689.6c9.2-7.8,21.6-13.2,33.8-11c5.4,1,10.6,3.3,14.8,6.9c2,1.8,3.7,3.8,5.1,6.1c1.6,2.8,2.6,5.9,3.7,8.9
				c2.2,6,5.7,12.7,12.5,14.2c1.9,0.4,2.7-2.5,0.8-2.9c-6.4-1.4-9-8.2-11.1-13.7c-1.1-3.1-2.2-6.2-4-8.9c-1.5-2.3-3.4-4.5-5.5-6.3
				c-9.3-7.8-22.1-9.5-33.6-6c-6.9,2.1-13.2,5.8-18.7,10.5C351.3,688.7,353.4,690.8,354.9,689.6L354.9,689.6z"/>
		</g>
	</g>
	<g class="st21">
		<g>
			<path d="M427.1,756c6.5-4.9,11.4-11.7,13.8-19.5c2.1-7,2.1-15.9-4.1-20.8c-3.5-2.8-8-3.7-12.3-4.5c-1.9-0.3-2.7,2.5-0.8,2.9
				c3.4,0.6,6.9,1.3,9.9,3c2.9,1.8,4.7,4.6,5.4,7.9c1.3,6.7-1.5,14-5.1,19.6c-2.2,3.4-5,6.4-8.3,8.9
				C424,754.6,425.5,757.2,427.1,756L427.1,756z"/>
		</g>
	</g>
	<g class="st21">
		<g>
			<path d="M1445.3,1021.5c0.2,7.5,2.3,15.1,7.1,20.9c4.4,5.3,11.4,8.8,18.4,8.2c1.9-0.2,1.9-3.2,0-3c-6.3,0.5-12.3-2.5-16.3-7.3
				c-4.3-5.2-6.1-12.2-6.3-18.8C1448.2,1019.6,1445.2,1019.6,1445.3,1021.5L1445.3,1021.5z"/>
		</g>
	</g>
	<g class="st21">
		<g>
			<path d="M1446.1,1017.6c-3.1,4.3-2.3,9.9-0.4,14.5c2,5,4.9,9.9,8.4,14c3.7,4.3,8.4,7.1,13.9,8.6c5.8,1.5,12,1.8,18,1.6
				c7.2-0.2,14.3-1.2,21.2-3c1.9-0.5,1.1-3.4-0.8-2.9c-5.8,1.5-11.6,2.4-17.6,2.8c-5.6,0.3-11.3,0.3-16.8-0.7
				c-5.1-0.9-10-2.7-13.8-6.3c-3.6-3.4-6.3-7.8-8.5-12.2c-2.3-4.5-4.4-10.4-1.2-14.9C1449.9,1017.6,1447.3,1016.1,1446.1,1017.6
				L1446.1,1017.6z"/>
		</g>
	</g>
	<g class="st21">
		<g>
			<path d="M1498.7,1054.3c-2.8,5.1-2.9,11.3-0.3,16.5c2.4,4.7,7.1,8,12.3,9c1.9,0.3,2.7-2.6,0.8-2.9c-4.3-0.8-8.2-3.4-10.3-7.3
				c-2.3-4.2-2.2-9.5,0.1-13.8C1502.2,1054.1,1499.6,1052.6,1498.7,1054.3L1498.7,1054.3z"/>
		</g>
	</g>
	<g class="st21">
		<g>
			<path d="M1497.7,1051.9c-1.9,0.3-3,1.9-3.6,3.6c-0.8,2.2-1.2,4.6-1.6,6.8c-0.8,4.8-1,9.7-0.6,14.5c0.4,4.6,1.1,9.5,2.9,13.9
				c1.6,4,5,7.4,9.6,6.5c1.9-0.3,1.1-3.2-0.8-2.9c-3.9,0.7-5.8-3.8-6.7-6.8c-1.1-3.8-1.8-7.7-2-11.6c-0.3-3.9-0.2-7.9,0.4-11.9
				c0.3-2,0.7-4,1.2-5.9c0.3-1.2,0.6-3.2,2.1-3.4C1500.4,1054.6,1499.6,1051.7,1497.7,1051.9L1497.7,1051.9z"/>
		</g>
	</g>
	<g class="st21">
		<g>
			<path d="M1505.1,1093c-0.8-0.1-1.2-1.9-1.4-2.5c-0.4-1.5-0.7-2.9-0.9-4.4c-0.4-3-0.5-6.1-0.3-9.1c0.4-6.1,2.1-12,4.8-17.4
				c0.9-1.7-1.7-3.2-2.6-1.5c-3.3,6.4-5.1,13.5-5.3,20.7c-0.1,3.6,0.2,7.2,0.9,10.7c0.6,2.8,1.4,6.2,4.7,6.6
				C1507,1096.2,1507,1093.2,1505.1,1093L1505.1,1093z"/>
		</g>
	</g>
	<g class="st21">
		<g>
			<path d="M1450.3,1064c-11.3-12.8-21-30.4-13.5-47.5c7.4-16.9,25.7-25.4,42.9-28.5c9.3-1.7,18.6-1.3,27.7,1.3
				c8.6,2.5,16.6,6.6,23.9,11.7c15.7,10.7,28.1,25.5,41.1,39.2c12.2,12.9,25.6,25.4,42,32.8c2,0.9,4,1.7,6,2.4
				c1.8,0.7,2.6-2.3,0.8-2.9c-17.4-6.2-31.6-18.8-44.3-32c-13.6-14.1-26.2-29.3-42.2-40.8c-7.4-5.3-15.5-9.7-24.2-12.5
				c-9.1-3-18.6-3.9-28-2.6c-18,2.4-37.3,10.5-46.6,26.9c-4.4,7.8-5.9,16.7-4.1,25.4c1.8,8.9,6.5,17,12,24.1
				c1.4,1.8,2.8,3.5,4.3,5.2C1449.5,1067.6,1451.6,1065.4,1450.3,1064L1450.3,1064z"/>
		</g>
	</g>
	<g class="st21">
		<g>
			<path d="M1507.1,1125.4c6.8-2.5,14.2-2.3,20.9,0.2c7.4,2.8,12.8,8.3,16.7,15.1c4.4,7.6,7.8,15.7,11.4,23.6
				c3.8,8.1,7.7,16.3,12.2,24c7.9,13.3,18,25.9,31.5,33.8c14.4,8.5,32.1,10.8,48.2,6.3c15.4-4.3,29.3-14.1,40.8-24.9
				c11-10.3,20.2-22.3,27.3-35.6c7.2-13.4,12.3-28,14.6-43.1c2.5-16.3,1.5-34-8.9-47.6c-4.5-5.8-10.4-10.4-17.5-12.7
				c-8-2.6-16.6-2.2-24.8-0.6c-17.1,3.4-33.1,12.7-50.8,12.3c-4.2-0.1-8.3-0.9-12.2-2.3c-1.8-0.7-2.6,2.2-0.8,2.9
				c16.6,6.2,34.1-0.7,49.9-5.9c15-4.9,32.8-9.1,46.7,1.1c13,9.5,17.2,26.4,16.5,41.7c-0.7,15.5-5.1,31-11.5,45
				c-6.2,13.4-14.5,25.8-24.6,36.6c-10.6,11.2-23.3,21.3-37.5,27.3c-15.3,6.5-32.9,6.7-48.1-0.2c-14.1-6.3-25-18.1-33.3-30.9
				c-9.4-14.6-15.9-30.9-23.5-46.5c-3.5-7.1-7.6-14.1-14.2-18.6c-5.7-4-12.8-6-19.8-5.8c-3.5,0.1-6.9,0.7-10.2,1.9
				C1504.5,1123.2,1505.3,1126.1,1507.1,1125.4L1507.1,1125.4z"/>
		</g>
	</g>
	<g class="st21">
		<g>
			<path d="M162.2,767.9c23.7,5.3,45.2,17.1,64.9,31.1c19.3,13.7,37.5,29.2,55,45.1c34.1,30.9,65.6,64.8,94.1,101
				c28.6,36.4,54.1,75.2,76.1,115.9c23,42.4,42,86.7,57.2,132.5c17,51.1,29.8,103.5,41.8,155.9c1.5,6.4,2.9,12.8,4.3,19.1
				c0.4,1.9,3.3,1.1,2.9-0.8c-12-53.1-24.3-106.1-40.6-158.1c-14.7-46.9-33-92.5-55.6-136.2c-21.4-41.4-46.3-80.9-74.4-118
				c-28-37-59-71.6-92.8-103.4C278,836,260.1,820.4,241.4,806c-18.8-14.5-38.8-27.8-61.2-35.9c-5.6-2-11.4-3.7-17.2-5
				C161.1,764.6,160.3,767.5,162.2,767.9L162.2,767.9z"/>
		</g>
	</g>
	<g class="st21">
		<g>
			<path d="M166.3,762.4c-17.5,0.7-35-0.2-52.3-2.8c-4.9-0.7-9.8-1.6-14.6-2.6c-1.9-0.4-2.7,2.5-0.8,2.9c17.3,3.5,35,5.4,52.7,5.6
				c5,0.1,10.1,0,15.1-0.2C168.2,765.4,168.2,762.4,166.3,762.4L166.3,762.4z"/>
		</g>
	</g>
	<g class="st21">
		<g>
			<path d="M87.6,758.5c1.8,7.9,11.3,10.5,16.9,15.2c6.7,5.5,11.4,12.9,15.3,20.6c4.3,8.6,7.8,17.7,11.2,26.8
				c3.6,9.8,6.9,19.7,9.7,29.7c3.3,11.4,6,22.9,8.3,34.5c0.4,1.9,3.3,1.1,2.9-0.8c-4-20.6-9.6-40.9-16.7-60.6
				c-3.3-9.3-6.9-18.5-11.1-27.5c-3.6-7.8-7.9-15.3-13.9-21.5c-3.3-3.4-7.1-6-11.2-8.4c-3.5-2.1-7.5-4.4-8.4-8.7
				C90,755.8,87.1,756.7,87.6,758.5L87.6,758.5z"/>
		</g>
	</g>
	<g class="st21">
		<g>
			<path d="M126.1,817.8c5.3,22.5,4,45.7,1.9,68.5c-2,22.9-4.9,46-2.4,68.9c2.3,21.2,9.7,41.3,21.4,59.2
				c11.6,17.8,26.9,32.9,44.1,45.4c18.2,13.2,38.5,23.5,59.3,31.8c2.5,1,5.1,2,7.6,3c1.8,0.7,2.6-2.2,0.8-2.9
				c-20.9-7.9-41.2-17.5-59.7-30c-17.7-11.9-33.6-26.4-46-43.8c-12.1-17-20.6-36.3-23.7-56.9c-3.4-22.6-1-45.6,1.1-68.2
				c2.1-22.5,4.1-45.4,0.3-67.8c-0.5-2.7-1-5.5-1.7-8.2C128.5,815.1,125.7,815.9,126.1,817.8L126.1,817.8z"/>
		</g>
	</g>
	<g class="st21">
		<g>
			<path d="M258,1089.4c2.6-5,9.3-5.8,14-3.8c6.2,2.6,9.5,9.5,11.6,15.4c5.1,14.7,5.9,30.3,5.7,45.7c-0.2,15.6-1.4,31.3-0.3,46.9
				c1,14.6,4.4,28.8,10.5,42.1c5.9,12.7,14.1,24.4,24.1,34.2c10,9.8,21.7,17.7,34,24.3c12.6,6.7,26,12.2,39.4,17.2
				c15,5.6,30.2,11,45.3,16.5c32.1,11.7,64.2,23.3,96.4,35c4,1.4,7.9,2.9,11.9,4.3c1.8,0.7,2.6-2.2,0.8-2.9
				c-32.6-11.8-65.2-23.7-97.7-35.5c-15.8-5.7-31.7-11.5-47.5-17.2c-13.6-5-27.2-10.1-40.2-16.5c-12.8-6.3-25.2-13.8-35.9-23.3
				c-10.7-9.5-19.5-20.9-26-33.7c-6.6-13.1-10.5-27.3-11.8-41.8c-1.4-16-0.2-32,0.1-48c0.3-15.5-0.4-31.3-5.2-46.2
				c-2-6.3-4.9-12.8-10.2-17c-4.4-3.5-10.5-4.7-15.9-2.5c-2.5,1-4.5,2.8-5.8,5.2C254.5,1089.6,257.1,1091.1,258,1089.4L258,1089.4z"
				/>
		</g>
	</g>
</g>
<g id="light_bulb">
	<path class="st22" d="M1002.3,1363.7c21.6,9.4,32.1-2.9,58,9.6c23.3,11.3,26.6,26.9,41.6,25.7c16.5-1.3,34.2-21.9,33.2-38.6
		c-0.8-14.8-15.6-16.2-28.8-36.2c-16.8-25.5-4.1-39.8-16.7-62.1c-14.6-25.7-54.3-47.1-89-34.2c-22.8,8.5-38,29.7-42.4,50.8
		C950.5,1315.6,975.5,1352.1,1002.3,1363.7z"/>
	<path class="st23" d="M1138.7,1385.6c-26.6-18.4-51-39.9-72.6-64c-5.1-5.7-10.2-12-10.9-19.6c-0.1-1.5-0.1-3.1,0.8-4.3
		c1.6-2.2,4.9-2.1,7.2-0.8c6.2,3.3,7.2,12.6,3.1,18.3c-4.1,5.7-11.8,7.8-18.8,7c-7-0.8-13.4-4-19.6-7.3c-6.1-3.3-12.9-7.6-13.7-14.5
		c7.5,2.8,13.7,8.1,19.8,13.4c30.8,26.7,61.7,53.3,92.5,80"/>
	
		<ellipse transform="matrix(0.652 -0.7582 0.7582 0.652 -656.2035 1325.1249)" class="st6" cx="1115.5" cy="1377.4" rx="28.3" ry="12.5"/>
	
		<ellipse transform="matrix(0.652 -0.7582 0.7582 0.652 -657.6129 1330.0199)" class="st8" cx="1120.1" cy="1381.4" rx="28.3" ry="12.5"/>
	
		<ellipse transform="matrix(0.652 -0.7582 0.7582 0.652 -659.0166 1334.9252)" class="st6" cx="1124.8" cy="1385.4" rx="28.3" ry="12.5"/>
	
		<ellipse transform="matrix(0.652 -0.7582 0.7582 0.652 -660.3123 1339.4127)" class="st8" cx="1129" cy="1389.1" rx="28.3" ry="12.5"/>
	
		<ellipse transform="matrix(0.652 -0.7582 0.7582 0.652 -662.1833 1343.957)" class="st6" cx="1133" cy="1393.4" rx="28.3" ry="12.5"/>
</g>
</svg>
